<svg id="visual" viewBox="0 0 960 540" width="960" height="540" xmlns="http://www.w3.org/2000/svg" xmlns:xlink="http://www.w3.org/1999/xlink" version="1.1"><rect x="0" y="0" width="960" height="540" fill="#e3e3e3"></rect><g transform="translate(514.941737128106 278.5672724005408)"><path d="M110.1 -190C133.2 -177.4 135.9 -128.7 135.1 -91C134.4 -53.3 130.2 -26.7 137.1 4C144 34.7 162.1 69.3 149.5 83.9C137 98.6 93.8 93.1 63.8 112.3C33.8 131.5 16.9 175.2 -0.7 176.5C-18.3 177.8 -36.7 136.5 -75.6 122.5C-114.6 108.5 -174.2 121.8 -201.7 105.9C-229.2 90 -224.6 45 -221 2.1C-217.4 -40.8 -214.8 -81.7 -192.6 -106.8C-170.5 -131.9 -128.7 -141.3 -93.4 -146.9C-58 -152.5 -29 -154.2 7.2 -166.8C43.5 -179.3 87 -202.7 110.1 -190" fill="#cc9393"></path></g></svg>