<svg id="visual" viewBox="0 0 50 1200" width="50" height="1200" xmlns="http://www.w3.org/2000/svg" xmlns:xlink="http://www.w3.org/1999/xlink" version="1.1"><rect x="0" y="0" width="50" height="1200" fill="#e3e3e300"></rect><path d="M39 0L35.8 9.5C32.7 19 26.3 38 23.8 57C21.3 76 22.7 95 22.5 114C22.3 133 20.7 152 19.7 171.2C18.7 190.3 18.3 209.7 20.8 228.8C23.3 248 28.7 267 27.7 286C26.7 305 19.3 324 15.7 343C12 362 12 381 12.5 400C13 419 14 438 14 457C14 476 13 495 14.7 514C16.3 533 20.7 552 24.2 571.2C27.7 590.3 30.3 609.7 30.2 628.8C30 648 27 667 24.2 686C21.3 705 18.7 724 20.3 743C22 762 28 781 31.8 800C35.7 819 37.3 838 33.8 857C30.3 876 21.7 895 17.5 914C13.3 933 13.7 952 15.7 971.2C17.7 990.3 21.3 1009.7 25.2 1028.8C29 1048 33 1067 33.3 1086C33.7 1105 30.3 1124 26 1143C21.7 1162 16.3 1181 13.7 1190.5L11 1200L0 1200L0 1190.5C0 1181 0 1162 0 1143C0 1124 0 1105 0 1086C0 1067 0 1048 0 1028.8C0 1009.7 0 990.3 0 971.2C0 952 0 933 0 914C0 895 0 876 0 857C0 838 0 819 0 800C0 781 0 762 0 743C0 724 0 705 0 686C0 667 0 648 0 628.8C0 609.7 0 590.3 0 571.2C0 552 0 533 0 514C0 495 0 476 0 457C0 438 0 419 0 400C0 381 0 362 0 343C0 324 0 305 0 286C0 267 0 248 0 228.8C0 209.7 0 190.3 0 171.2C0 152 0 133 0 114C0 95 0 76 0 57C0 38 0 19 0 9.5L0 0Z" fill="#342e3d" stroke-linecap="round" stroke-linejoin="miter"></path></svg>