<svg id="visual" viewBox="0 0 40 900" width="40" height="900" xmlns="http://www.w3.org/2000/svg" xmlns:xlink="http://www.w3.org/1999/xlink" version="1.1"><rect x="0" y="0" width="40" height="900" fill="#e3e3e3"></rect><path d="M18 0L18.7 7.2C19.3 14.3 20.7 28.7 21.7 43C22.7 57.3 23.3 71.7 23 86C22.7 100.3 21.3 114.7 20.8 128.8C20.3 143 20.7 157 21.3 171.2C22 185.3 23 199.7 22.2 214C21.3 228.3 18.7 242.7 19 257C19.3 271.3 22.7 285.7 23 300C23.3 314.3 20.7 328.7 19 343C17.3 357.3 16.7 371.7 18.2 386C19.7 400.3 23.3 414.7 23.7 428.8C24 443 21 457 19.5 471.2C18 485.3 18 499.7 18.7 514C19.3 528.3 20.7 542.7 21.8 557C23 571.3 24 585.7 24 600C24 614.3 23 628.7 21.3 643C19.7 657.3 17.3 671.7 16.2 686C15 700.3 15 714.7 15.8 728.8C16.7 743 18.3 757 19.3 771.2C20.3 785.3 20.7 799.7 20.8 814C21 828.3 21 842.7 20.8 857C20.7 871.3 20.3 885.7 20.2 892.8L20 900L0 900L0 892.8C0 885.7 0 871.3 0 857C0 842.7 0 828.3 0 814C0 799.7 0 785.3 0 771.2C0 757 0 743 0 728.8C0 714.7 0 700.3 0 686C0 671.7 0 657.3 0 643C0 628.7 0 614.3 0 600C0 585.7 0 571.3 0 557C0 542.7 0 528.3 0 514C0 499.7 0 485.3 0 471.2C0 457 0 443 0 428.8C0 414.7 0 400.3 0 386C0 371.7 0 357.3 0 343C0 328.7 0 314.3 0 300C0 285.7 0 271.3 0 257C0 242.7 0 228.3 0 214C0 199.7 0 185.3 0 171.2C0 157 0 143 0 128.8C0 114.7 0 100.3 0 86C0 71.7 0 57.3 0 43C0 28.7 0 14.3 0 7.2L0 0Z" fill="#342e3d" stroke-linecap="round" stroke-linejoin="miter"></path></svg>