<svg id="visual" viewBox="0 0 40 900" width="40" height="900" xmlns="http://www.w3.org/2000/svg" xmlns:xlink="http://www.w3.org/1999/xlink" version="1.1"><rect x="0" y="0" width="40" height="900" fill="#e3e3e3"></rect><path d="M16 0L17.7 7.2C19.3 14.3 22.7 28.7 22.7 43C22.7 57.3 19.3 71.7 18.3 86C17.3 100.3 18.7 114.7 20.2 128.8C21.7 143 23.3 157 24 171.2C24.7 185.3 24.3 199.7 22.7 214C21 228.3 18 242.7 17.5 257C17 271.3 19 285.7 19.2 300C19.3 314.3 17.7 328.7 18.5 343C19.3 357.3 22.7 371.7 23.8 386C25 400.3 24 414.7 22.2 428.8C20.3 443 17.7 457 16.5 471.2C15.3 485.3 15.7 499.7 16 514C16.3 528.3 16.7 542.7 16.5 557C16.3 571.3 15.7 585.7 16.3 600C17 614.3 19 628.7 20 643C21 657.3 21 671.7 20 686C19 700.3 17 714.7 16.2 728.8C15.3 743 15.7 757 17.5 771.2C19.3 785.3 22.7 799.7 24 814C25.3 828.3 24.7 842.7 23.8 857C23 871.3 22 885.7 21.5 892.8L21 900L0 900L0 892.8C0 885.7 0 871.3 0 857C0 842.7 0 828.3 0 814C0 799.7 0 785.3 0 771.2C0 757 0 743 0 728.8C0 714.7 0 700.3 0 686C0 671.7 0 657.3 0 643C0 628.7 0 614.3 0 600C0 585.7 0 571.3 0 557C0 542.7 0 528.3 0 514C0 499.7 0 485.3 0 471.2C0 457 0 443 0 428.8C0 414.7 0 400.3 0 386C0 371.7 0 357.3 0 343C0 328.7 0 314.3 0 300C0 285.7 0 271.3 0 257C0 242.7 0 228.3 0 214C0 199.7 0 185.3 0 171.2C0 157 0 143 0 128.8C0 114.7 0 100.3 0 86C0 71.7 0 57.3 0 43C0 28.7 0 14.3 0 7.2L0 0Z" fill="#342e3d" stroke-linecap="round" stroke-linejoin="miter"></path></svg>