<svg id="visual" viewBox="0 0 600 900" width="600" height="900" xmlns="http://www.w3.org/2000/svg" xmlns:xlink="http://www.w3.org/1999/xlink" version="1.1"><rect x="0" y="0" width="600" height="900" fill="#342e3d"></rect><path d="M565 900L567.2 881.3C569.3 862.7 573.7 825.3 575.7 787.8C577.7 750.3 577.3 712.7 573.7 675.2C570 637.7 563 600.3 561.2 562.8C559.3 525.3 562.7 487.7 568 450.2C573.3 412.7 580.7 375.3 582.5 337.8C584.3 300.3 580.7 262.7 580.5 225.2C580.3 187.7 583.7 150.3 583.2 112.8C582.7 75.3 578.3 37.7 576.2 18.8L574 0L600 0L600 18.8C600 37.7 600 75.3 600 112.8C600 150.3 600 187.7 600 225.2C600 262.7 600 300.3 600 337.8C600 375.3 600 412.7 600 450.2C600 487.7 600 525.3 600 562.8C600 600.3 600 637.7 600 675.2C600 712.7 600 750.3 600 787.8C600 825.3 600 862.7 600 881.3L600 900Z" fill="#e3e3e3" stroke-linecap="round" stroke-linejoin="miter"></path></svg>