<svg id="visual" viewBox="0 0 40 1200" width="40" height="1200" xmlns="http://www.w3.org/2000/svg" xmlns:xlink="http://www.w3.org/1999/xlink" version="1.1"><rect x="0" y="0" width="40" height="1200" fill="#e3e3e3"></rect><path d="M32 0L29.3 9.5C26.7 19 21.3 38 19.3 57C17.3 76 18.7 95 18.5 114C18.3 133 16.7 152 15.8 171.2C15 190.3 15 209.7 17 228.8C19 248 23 267 22 286C21 305 15 324 12.2 343C9.3 362 9.7 381 10.2 400C10.7 419 11.3 438 11.3 457C11.3 476 10.7 495 12 514C13.3 533 16.7 552 19.5 571.2C22.3 590.3 24.7 609.7 24.7 628.8C24.7 648 22.3 667 20 686C17.7 705 15.3 724 16.7 743C18 762 23 781 26.2 800C29.3 819 30.7 838 27.8 857C25 876 18 895 14.5 914C11 933 11 952 12.5 971.2C14 990.3 17 1009.7 20.2 1028.8C23.3 1048 26.7 1067 27 1086C27.3 1105 24.7 1124 21.2 1143C17.7 1162 13.3 1181 11.2 1190.5L9 1200L0 1200L0 1190.5C0 1181 0 1162 0 1143C0 1124 0 1105 0 1086C0 1067 0 1048 0 1028.8C0 1009.7 0 990.3 0 971.2C0 952 0 933 0 914C0 895 0 876 0 857C0 838 0 819 0 800C0 781 0 762 0 743C0 724 0 705 0 686C0 667 0 648 0 628.8C0 609.7 0 590.3 0 571.2C0 552 0 533 0 514C0 495 0 476 0 457C0 438 0 419 0 400C0 381 0 362 0 343C0 324 0 305 0 286C0 267 0 248 0 228.8C0 209.7 0 190.3 0 171.2C0 152 0 133 0 114C0 95 0 76 0 57C0 38 0 19 0 9.5L0 0Z" fill="#342e3d" stroke-linecap="round" stroke-linejoin="miter"></path></svg>