<svg id="visual" viewBox="0 0 960 540" width="960" height="540" xmlns="http://www.w3.org/2000/svg" xmlns:xlink="http://www.w3.org/1999/xlink" version="1.1"><rect x="0" y="0" width="960" height="540" fill="#342e3d"></rect><path d="M0 488L10 487.5C20 487 40 486 60 489.5C80 493 100 501 120 501.3C140 501.7 160 494.3 180 489.8C200 485.3 220 483.7 240 485.3C260 487 280 492 300 491.2C320 490.3 340 483.7 360 483.3C380 483 400 489 420 490.7C440 492.3 460 489.7 480 488.8C500 488 520 489 540 486.7C560 484.3 580 478.7 600 476.7C620 474.7 640 476.3 660 477C680 477.7 700 477.3 720 479.3C740 481.3 760 485.7 780 486.8C800 488 820 486 840 480.7C860 475.3 880 466.7 900 468.2C920 469.7 940 481.3 950 487.2L960 493L960 541L950 541C940 541 920 541 900 541C880 541 860 541 840 541C820 541 800 541 780 541C760 541 740 541 720 541C700 541 680 541 660 541C640 541 620 541 600 541C580 541 560 541 540 541C520 541 500 541 480 541C460 541 440 541 420 541C400 541 380 541 360 541C340 541 320 541 300 541C280 541 260 541 240 541C220 541 200 541 180 541C160 541 140 541 120 541C100 541 80 541 60 541C40 541 20 541 10 541L0 541Z" fill="#e3e3e3" stroke-linecap="round" stroke-linejoin="miter"></path></svg>